<?xml version="1.0" standalone="no"?>
<!DOCTYPE svg PUBLIC "-//W3C//DTD SVG 20010904//EN"
 "http://www.w3.org/TR/2001/REC-SVG-20010904/DTD/svg10.dtd">
<svg version="1.0" xmlns="http://www.w3.org/2000/svg"
 width="512.000000pt" height="512.000000pt" viewBox="0 0 512.000000 512.000000"
 preserveAspectRatio="xMidYMid meet">

<g transform="translate(0.000000,512.000000) scale(0.100000,-0.100000)"
fill="#000000" stroke="none">
<path d="M3990 4695 c-25 -7 -58 -18 -74 -24 -38 -15 -143 -90 -176 -125 l-24
-27 403 -402 402 -402 55 60 c144 156 178 363 92 545 -41 86 -231 283 -317
329 -110 58 -255 77 -361 46z"/>
<path d="M3260 4065 l-225 -225 -1145 0 c-997 0 -1153 -2 -1205 -15 -172 -45
-305 -179 -350 -352 -23 -86 -23 -2700 0 -2786 45 -173 178 -307 350 -352 52
-13 228 -15 1395 -15 1470 0 1390 -3 1511 61 70 38 157 126 193 197 58 115 56
65 56 1312 l0 1145 227 227 228 228 -400 400 c-220 220 -402 400 -405 400 -3
0 -106 -101 -230 -225z m-1080 -1080 l-535 -535 403 -402 402 -403 535 535
535 535 -2 -987 c-3 -979 -3 -987 -24 -1014 -11 -15 -33 -37 -48 -48 -27 -21
-30 -21 -1366 -21 -1336 0 -1339 0 -1366 21 -15 11 -37 33 -48 48 -21 27 -21
32 -24 1339 -1 722 0 1326 3 1344 7 40 49 91 90 109 24 11 217 13 1005 14
l975 0 -535 -535z"/>
<path d="M1229 1744 c-210 -423 -223 -452 -223 -506 -1 -42 4 -64 20 -84 32
-44 68 -66 116 -71 39 -5 99 16 534 181 269 103 492 190 496 194 4 4 -156 171
-356 371 l-364 363 -223 -448z"/>
</g>
</svg>
