<?xml version="1.0" standalone="no"?>
<!DOCTYPE svg PUBLIC "-//W3C//DTD SVG 20010904//EN"
 "http://www.w3.org/TR/2001/REC-SVG-20010904/DTD/svg10.dtd">
<svg version="1.0" xmlns="http://www.w3.org/2000/svg"
 width="512.000000pt" height="512.000000pt" viewBox="0 0 512.000000 512.000000"
 preserveAspectRatio="xMidYMid meet">

<g transform="translate(0.000000,512.000000) scale(0.100000,-0.100000)"
fill="#000000" stroke="none">
<path d="M2476 5105 c-90 -34 -147 -104 -165 -200 -6 -32 -11 -121 -11 -197 0
-77 -4 -147 -9 -157 -6 -10 -27 -25 -48 -34 -21 -9 -87 -37 -147 -62 -78 -34
-116 -45 -134 -40 -14 3 -80 59 -146 124 -67 65 -137 126 -156 136 -19 10 -61
20 -95 23 -107 8 -131 -8 -382 -261 -199 -201 -222 -227 -238 -276 -21 -65
-16 -131 16 -193 12 -25 89 -110 183 -205 148 -148 165 -163 197 -163 38 1 60
14 77 47 26 47 16 62 -142 222 -155 156 -181 192 -170 235 3 13 96 114 208
225 179 178 206 201 234 201 28 0 51 -18 166 -129 111 -108 141 -131 185 -146
73 -24 127 -16 253 38 57 25 124 52 149 62 66 24 118 70 145 129 22 47 24 64
24 206 0 85 5 172 11 192 18 67 31 69 349 66 276 -3 280 -3 302 -26 22 -21 23
-31 28 -216 l5 -193 30 -49 c38 -60 75 -85 213 -142 223 -91 240 -95 327 -65
39 13 76 42 182 145 114 111 137 128 165 128 29 0 55 -22 240 -208 186 -186
208 -211 208 -240 0 -29 -16 -50 -123 -160 -136 -140 -156 -170 -164 -246 -6
-56 0 -76 82 -276 55 -135 79 -170 143 -207 46 -27 51 -28 239 -33 184 -5 194
-6 215 -28 23 -22 23 -26 26 -302 3 -318 1 -331 -66 -349 -20 -6 -107 -11
-192 -11 -142 0 -159 -2 -206 -24 -59 -27 -105 -79 -129 -145 -10 -25 -37 -92
-62 -149 -54 -126 -62 -180 -38 -253 15 -44 38 -74 146 -185 111 -115 129
-138 129 -166 0 -28 -23 -55 -201 -234 -111 -112 -212 -205 -225 -208 -43 -11
-79 15 -235 170 -136 135 -159 154 -188 154 -45 0 -81 -38 -81 -87 0 -36 10
-47 163 -199 93 -93 180 -171 205 -183 62 -32 128 -37 193 -16 49 16 75 39
276 238 253 251 269 275 261 382 -3 34 -13 76 -23 95 -10 19 -71 89 -136 156
-65 66 -121 132 -124 146 -5 18 3 47 23 94 17 38 44 104 62 147 18 42 40 82
50 87 10 6 81 10 158 10 221 0 298 23 361 110 49 68 52 98 49 430 -3 291 -4
307 -25 345 -28 52 -78 100 -128 122 -32 14 -75 18 -215 20 -97 2 -185 9 -197
15 -11 5 -28 27 -36 47 -100 235 -108 257 -102 281 4 14 60 79 124 145 65 66
126 136 136 155 10 19 20 62 23 96 8 109 -16 146 -251 381 -220 219 -267 253
-358 253 -92 0 -133 -23 -269 -156 -70 -68 -137 -125 -152 -129 -19 -5 -48 3
-105 28 -43 20 -104 45 -136 57 -95 36 -95 34 -99 243 -3 146 -7 190 -21 222
-22 50 -70 100 -122 128 -38 21 -53 22 -355 24 -255 2 -322 -1 -354 -12z"/>
<path d="M2613 3906 c-203 -39 -439 -160 -557 -286 -54 -58 -60 -97 -21 -135
42 -43 81 -34 160 34 392 340 961 313 1310 -61 143 -153 223 -329 248 -545 28
-252 -61 -522 -235 -719 -32 -36 -59 -73 -59 -82 -4 -63 26 -102 81 -102 32 0
44 8 92 57 141 150 248 372 278 582 20 132 8 345 -24 454 -61 206 -149 357
-287 496 -139 138 -289 225 -496 287 -76 23 -110 27 -253 30 -111 2 -188 -1
-237 -10z"/>
<path d="M1434 3391 c-23 -10 -57 -34 -76 -53 -54 -54 -71 -101 -78 -208 -4
-52 -10 -103 -14 -112 -8 -17 -63 -46 -128 -67 -46 -15 -62 -8 -145 69 -97 91
-197 112 -300 64 -21 -10 -104 -83 -186 -163 -171 -168 -197 -209 -197 -308 0
-84 18 -124 90 -199 75 -78 80 -97 45 -186 -33 -85 -56 -98 -172 -98 -91 0
-142 -19 -195 -72 -70 -71 -73 -85 -73 -353 0 -265 1 -272 69 -343 53 -57 99
-75 206 -80 52 -2 103 -9 114 -14 22 -12 76 -127 76 -163 0 -17 -19 -46 -61
-91 -74 -80 -101 -136 -101 -214 0 -98 25 -137 191 -302 168 -167 200 -188
301 -188 84 0 127 20 213 98 45 41 76 62 92 62 36 0 151 -54 163 -76 5 -11 12
-62 14 -114 5 -107 23 -153 80 -206 71 -68 78 -69 343 -69 267 0 282 3 351 72
55 55 67 88 74 200 5 88 9 106 29 126 23 25 118 67 151 67 11 0 50 -28 87 -61
85 -77 137 -101 215 -101 95 0 142 29 304 194 78 79 151 162 163 185 53 106
34 207 -58 305 -69 75 -85 102 -77 134 12 46 58 132 74 140 9 4 60 10 112 14
107 7 154 24 208 78 67 68 72 90 72 347 0 210 -2 234 -21 275 -46 102 -127
150 -254 150 -44 0 -91 6 -105 13 -30 15 -84 119 -84 164 0 25 12 44 56 90 98
103 124 183 93 289 -15 56 -25 68 -183 226 -157 156 -170 167 -226 183 -105
31 -186 5 -289 -93 -46 -45 -65 -56 -91 -56 -45 0 -148 53 -163 84 -7 14 -13
61 -13 105 0 127 -48 208 -150 254 -41 19 -65 21 -275 21 -203 0 -235 -3 -271
-19z m497 -170 c21 -17 24 -30 30 -118 4 -54 14 -116 23 -138 25 -58 79 -109
156 -144 160 -74 245 -64 359 43 74 70 107 84 149 62 43 -23 280 -268 287
-298 9 -34 -6 -60 -72 -130 -108 -115 -117 -213 -33 -377 57 -112 121 -150
273 -160 142 -9 137 0 137 -255 0 -258 4 -252 -165 -258 -139 -6 -208 -58
-265 -199 -59 -145 -45 -233 53 -337 107 -112 104 -122 -77 -301 -123 -120
-137 -131 -171 -131 -31 0 -47 9 -101 59 -118 108 -194 124 -331 72 -105 -41
-152 -76 -187 -141 -24 -44 -29 -67 -33 -144 -2 -50 -9 -101 -15 -112 -18 -38
-50 -44 -248 -44 -185 0 -189 0 -217 24 -26 23 -28 30 -34 129 -5 88 -10 111
-31 148 -37 62 -62 83 -153 126 -70 33 -89 37 -155 38 -90 0 -119 -14 -208
-96 -53 -50 -68 -59 -100 -59 -34 0 -47 11 -179 142 -133 133 -143 145 -143
180 0 32 9 47 59 100 82 89 96 118 96 208 -1 66 -5 85 -38 155 -43 91 -64 116
-126 153 -37 21 -60 26 -148 31 -99 6 -106 8 -129 34 -24 28 -24 32 -24 217 0
198 6 230 44 248 11 6 62 13 112 15 156 7 222 59 285 220 52 137 34 218 -73
333 -50 53 -58 67 -58 99 0 36 9 48 128 167 70 72 140 136 156 145 41 21 69
10 141 -57 77 -71 121 -92 200 -94 47 0 78 7 142 33 142 57 195 128 201 266 4
103 8 120 34 145 20 19 35 20 224 20 183 0 204 -2 225 -19z"/>
<path d="M1518 2450 c-471 -116 -714 -650 -496 -1085 103 -203 272 -340 499
-402 97 -27 289 -25 394 5 126 36 281 129 377 226 58 59 122 190 154 314 23
87 25 111 21 227 -5 134 -18 191 -67 300 -88 195 -288 358 -513 416 -97 25
-264 25 -369 -1z m332 -165 c212 -56 386 -232 435 -436 101 -430 -276 -816
-708 -724 -196 41 -366 192 -434 385 -115 328 78 685 417 774 72 19 221 20
290 1z"/>
</g>
</svg>
