<svg width="35" height="35" viewBox="0 0 35 35" fill="none" xmlns="http://www.w3.org/2000/svg">
<path d="M14.6796 0.951415C16.3088 -0.317141 18.6912 -0.317141 20.3204 0.951433L33.4454 11.1707C34.4311 11.9383 35 13.0682 35 14.2588V31.8581C35 33.5933 33.4765 35 31.5972 35H24.7917C22.9124 35 21.3889 33.5933 21.3889 31.8581V21.9837C21.3889 21.736 21.1713 21.5349 20.9028 21.5349H14.0972C13.8287 21.5349 13.6111 21.736 13.6111 21.9837V31.8581C13.6111 33.5933 12.0876 35 10.2083 35H3.40278C1.52347 35 0 33.5933 0 31.8581V14.2588C0 13.0682 0.568847 11.9383 1.55462 11.1707L14.6796 0.951415ZM18.4401 3.01016C17.8971 2.5873 17.1029 2.5873 16.5599 3.01016L3.43488 13.2295C3.10629 13.4853 2.91667 13.862 2.91667 14.2588V31.8581C2.91667 32.1061 3.13431 32.307 3.40278 32.307H10.2083C10.4768 32.307 10.6944 32.1061 10.6944 31.8581V21.9837C10.6944 20.2485 12.2179 18.8419 14.0972 18.8419H20.9028C22.7821 18.8419 24.3056 20.2485 24.3056 21.9837V31.8581C24.3056 32.1061 24.5231 32.307 24.7917 32.307H31.5972C31.8657 32.307 32.0833 32.1061 32.0833 31.8581V14.2588C32.0833 13.862 31.8937 13.4853 31.5651 13.2295L18.4401 3.01016Z" fill="#212121"/>
</svg>
