<svg width="29" height="35" viewBox="0 0 29 35" fill="none" xmlns="http://www.w3.org/2000/svg">
<path d="M24.6867 20.9956C26.9164 20.9956 28.7241 22.7578 28.7241 24.9318V25.939C28.7241 27.5043 28.1504 29.018 27.1064 30.2071C24.2888 33.4163 20.0031 35 14.3561 35C8.70833 35 4.4247 33.4158 1.61269 30.2052C0.571841 29.0169 0 27.5055 0 25.9428V24.9318C0 22.7578 1.80763 20.9956 4.03744 20.9956H24.6867ZM24.6867 23.621H4.03744C3.29491 23.621 2.69296 24.2079 2.69296 24.9318V25.9428C2.69296 26.8805 3.03607 27.7873 3.66058 28.5004C5.91066 31.0691 9.44003 32.3745 14.3561 32.3745C19.2722 32.3745 22.8046 31.0691 25.0604 28.4999C25.6868 27.7864 26.0312 26.878 26.0312 25.939V24.9318C26.0312 24.2079 25.4292 23.621 24.6867 23.621ZM14.3561 0C19.3137 0 23.3326 3.91822 23.3326 8.75157C23.3326 13.5849 19.3137 17.5032 14.3561 17.5032C9.39852 17.5032 5.37957 13.5849 5.37957 8.75157C5.37957 3.91822 9.39852 0 14.3561 0ZM14.3561 2.62547C10.8858 2.62547 8.07254 5.36823 8.07254 8.75157C8.07254 12.1349 10.8858 14.8777 14.3561 14.8777C17.8264 14.8777 20.6397 12.1349 20.6397 8.75157C20.6397 5.36823 17.8264 2.62547 14.3561 2.62547Z" fill="#212121"/>
</svg>
