<svg width="35" height="35" viewBox="0 0 35 35" fill="none" xmlns="http://www.w3.org/2000/svg">
<path d="M14.0972 0C21.883 0 28.1945 6.31155 28.1945 14.0972C28.1945 17.4648 27.0136 20.5565 25.0435 22.981L34.5728 32.5105C35.1424 33.0801 35.1424 34.0033 34.5728 34.5728C34.0552 35.0906 33.245 35.1377 32.6741 34.714L32.5106 34.5728L22.981 25.0435C20.5565 27.0136 17.4648 28.1945 14.0972 28.1945C6.31156 28.1945 0 21.883 0 14.0972C0 6.31155 6.31156 0 14.0972 0ZM14.0972 2.91667C7.92238 2.91667 2.91667 7.92237 2.91667 14.0972C2.91667 20.272 7.92238 25.2778 14.0972 25.2778C20.272 25.2778 25.2778 20.272 25.2778 14.0972C25.2778 7.92237 20.272 2.91667 14.0972 2.91667Z" fill="#212121"/>
</svg>
